<svg id="Layer_1" data-name="Layer 1" xmlns="http://www.w3.org/2000/svg" fill="rgb(52, 65, 75)" viewBox="0 0 1000 163.93" width="100%" height="100%"><path d="M83.85,50.78q.86,2.73-2.55,4.6-1.2.51-9.21,5.28l-2.81,2a11.2,11.2,0,0,1-4,2,9.07,9.07,0,0,0-2.73,1.87c-1.13,1-1.82,1.65-2,1.88-1.48,1-3.69,2.47-6.65,4.34s-4.94,3.15-6,3.84q-.69.51-2.64,2.13c-1.31,1.08-2.3,1.84-3,2.3-1.26.79-2.59,1.59-4,2.38s-3,1.68-4.6,2.64-3,1.74-4,2.3c-2.84,1.6-4.15,3.64-3.92,6.14a33.36,33.36,0,0,1-.85,3.41q-1.2,4.43,1.7,6.81,6.3,6,9,9.2,5.28,5.81,10,12.1a11.67,11.67,0,0,1,1.2,2.39,17.2,17.2,0,0,0,1.19,2,12.54,12.54,0,0,1,6,7.16l.6.59q.42.43.6.6a14.43,14.43,0,0,1,2.55,3.75A2.85,2.85,0,0,0,60,144.83c.34.12.79.69,1.36,1.71.23.34,1.19,1.93,2.9,4.77l.17.17-.17-.17a8.2,8.2,0,0,0,3.15,3.92,16.62,16.62,0,0,1,3.32,3.06,2.25,2.25,0,0,0,.85.77,2.3,2.3,0,0,1,.86.77,2.09,2.09,0,0,1,0,1.19c-.92,1.71-2.16,2.5-3.75,2.39a12,12,0,0,1-3.07-1A18.9,18.9,0,0,1,59,155.91q-1.36-2.22-3.06-4.69T52,145.77q-2.22-3-3.41-4.51-2.89-3.93-8.43-10.91t-6.39-8.18c-1-1.25-2.53-3-4.52-5.28s-3.32-3.81-4-4.6c-1-1.25-2.16-1.65-3.41-1.19,0,2.27-.06,4-.17,5.28-.23,1.59-.91,2.55-2.05,2.89l-.17.18.17-.18a8.81,8.81,0,0,0,.86-6.13l-2,1.7q.67,1.71-.51,6.82c-.23.91-.46,2.1-.68,3.58,1.59,2.27,1.93,4.32,1,6.13a49.75,49.75,0,0,1-1.7,13.29A40.2,40.2,0,0,0,15.18,153a19.82,19.82,0,0,0,1,3.07q2.2,4.42-2.56,5.28a7.61,7.61,0,0,1-5.88-1,8.18,8.18,0,0,1-3.49-5.11A10.51,10.51,0,0,1,4.62,150a12.1,12.1,0,0,0,.85-2.39c.23-.91.45-2,.68-3.24s.4-2.16.51-2.72q.86-3.75,2.47-10.91t2.31-10.9c.34-1.59.76-4,1.27-7.33s.88-5.74,1.11-7.33q.86-3.41-2-4.77c-.8-.45-2-1.11-3.67-2L5.3,97A8.68,8.68,0,0,1,.36,91.5a2.41,2.41,0,0,1-.09-2.38c.4-.57,1.23-.8,2.47-.69a12.79,12.79,0,0,1,2.05.17L7.17,89l2.22.43c.11.11.4.05.85-.17l-.51-.52-.34-.34a1.66,1.66,0,0,1-.51-.34,9.16,9.16,0,0,1-1.19-.68,10.81,10.81,0,0,1,1.7-.34,23.59,23.59,0,0,1,4.43.68,4.22,4.22,0,0,0,2.47,0c.4-.22.65-1,.77-2.21q.17-.86,1.45-7.84t2.13-10.57q2.55-11.58,5.79-23,1-3.41,3.66-4.09c1.76-.45,3.44.17,5,1.88q3.75,3.75,1.36,9.37Q33.24,58.79,33.07,62a1.67,1.67,0,0,1-.34,1.2c-1.25,1.47-2.07,3.89-2.47,7.24A28.38,28.38,0,0,1,29,77a2.18,2.18,0,0,0,0,1.7c.11,1.48.9,1.88,2.38,1.19q1.53-1,4.43-3.06c1.93-1.37,3.66-2.61,5.2-3.75s3-2.22,4.43-3.24S49,67.22,51.73,65s4.86-3.83,6.22-4.85q5.79-4.42,13.8-10.4a15.07,15.07,0,0,1,6.82-2.89C81.18,46.52,82.94,47.82,83.85,50.78ZM19.61,109.22a8.39,8.39,0,0,0-.85-2.38,7,7,0,0,0-1.19,2q-3.08,17-4.77,25.39-.69,3.91-2.05,11.25a14.32,14.32,0,0,0-.34,2.72,2.88,2.88,0,0,0,.34.85l.69-.68c.11-.23.22-.48.34-.76a2.16,2.16,0,0,0,.17-.6q.68-3.08,1.87-9.46c.79-4.26,1.42-7.52,1.87-9.8.23-1.13.66-3.15,1.28-6s1.11-5.2,1.45-6.91h-.17C18.93,112.35,19.38,110.47,19.61,109.22ZM16.55,138.7l-1.37-1.53a1.91,1.91,0,0,0-.68,1.27,1,1,0,0,0,.68.94Zm1.53-7.33v-.51a2,2,0,0,1-.51-.85l-.17.34a.5.5,0,0,1,.17.34c0,.23.05.34.17.34Zm2.39-35.1.34-.68-.34-.51-.17.34v.51A.52.52,0,0,1,20.47,96.27Zm1.19,13.8c0-.34-.23-.62-.68-.85a1.3,1.3,0,0,0-.51.17,3.8,3.8,0,0,0,.51,1.19c0,.23.22.35.68.35Zm39.19,38.51.17-.34h-.51v.34Z" transform="translate(0 -37.76)"/><path d="M101.4,102.92a.7.7,0,0,1-.17.51c-.57,1.48-2.19,3.83-4.85,7.07s-4.12,5-4.35,5.37q-2,3.06-12.44,15.5a8.47,8.47,0,0,1-8.18,3.24,13.86,13.86,0,0,1-7-2c-3.87-3.07-5.85-6.48-6-10.23a35.88,35.88,0,0,1-.34-4.26,56.62,56.62,0,0,1,2.22-13.46c2.15-6.24,3.41-9.65,3.75-10.22a50.75,50.75,0,0,1,9-14.32,5.92,5.92,0,0,1,3.75-1.87A22.31,22.31,0,0,0,80.1,78q3.41-.51,6.14,3.24a22.7,22.7,0,0,1,2.38,3.58A1.94,1.94,0,0,1,89,86.73a58.92,58.92,0,0,1-3.06,9.71,33.44,33.44,0,0,1-6,7.5c-.45.45-1.19,1.14-2.21,2s-1.94,1.74-2.73,2.47a10.82,10.82,0,0,1-2.55,1.79,4.3,4.3,0,0,0-1,1c-.45.57-.74.91-.85,1s-.25.11-.42.34-.32.34-.43.34q-1.71.34-2.22,3.24-.67,7.32.34,10.39c.46,1.36,1.31,1.76,2.56,1.19.68-.34,2.73-1.3,6.13-2.89v0a164.28,164.28,0,0,0,13.81-13.29,36.28,36.28,0,0,1,3.49-3.33,25.55,25.55,0,0,0,3.66-3.66,4.32,4.32,0,0,1,3.07-2.21A1,1,0,0,1,101.4,102.92ZM84,85.71a3.28,3.28,0,0,0-.68-2.22c0-.11-.08-.22-.26-.34a1.4,1.4,0,0,1-.42-.42,3.4,3.4,0,0,0-.34-.43c-.8-1.13-1.65-1.25-2.56-.34a3.82,3.82,0,0,0-.68,1.11,3.61,3.61,0,0,1-.68,1.1A8.41,8.41,0,0,0,78,85.28a10.58,10.58,0,0,1-.42,1.11,37.15,37.15,0,0,0-2.22,5.45A15.71,15.71,0,0,1,72.27,98a28,28,0,0,0-1.54,3.57c0,1.48.51,1.94,1.54,1.37a25.39,25.39,0,0,0,7.49-7Q81,94.23,84,85.71Z" transform="translate(0 -37.76)"/><path d="M148.26,104.62q.51,3.24-1.19,9.37a48,48,0,0,1-3.33,8.27q-2.13,4.17-5.19,9.2t-4.6,7.75q-1.71,2.89-2.9,5.45l-1,1.54c-1.71,1.47-3.41,1.42-5.11-.17a25,25,0,0,1-3.07-4.77,2.58,2.58,0,0,1-.17-2.39,27.26,27.26,0,0,0,1.19-5.71q.34-3.15.6-7t.42-5.71c.12-.57.29-1.39.52-2.47a14,14,0,0,0,.34-2.64l1-10.91q0-1.87-1.71-1c-1.13.91-1.81,1.48-2,1.7l-2.3,4a45.16,45.16,0,0,1-2.64,4.17,26.66,26.66,0,0,0-2.73,4.77c-1,2.16-1.82,3.69-2.38,4.6a23.29,23.29,0,0,1-1.45,2.3,15,15,0,0,0-1.45,2.47q-2.73,4.44-4.94,8.18c-.34.57-.46.91-.34,1a4.34,4.34,0,0,1-.09,1.88,9.94,9.94,0,0,1-.76,2,13.75,13.75,0,0,0-.69,1.54c-.68,2.27-2.21,2.66-4.6,1.19q-2.73-1.71-4.6-6.82a11.43,11.43,0,0,1-.17-2.38c.46-1.93,1.08-4.74,1.88-8.44s1.53-7,2.21-10,1.42-5.82,2.22-8.43q3.06-12.62,4.09-18.92a37.18,37.18,0,0,1,1.53-5,33.81,33.81,0,0,0,1.36-4.35,20.72,20.72,0,0,0,.85-3.07q.35-3.06,3.92-2.38a6.28,6.28,0,0,1,3,1.28,10.75,10.75,0,0,1,2.3,3.4,26,26,0,0,0,1.36,2.65,3.34,3.34,0,0,1-.17,2.72q-3.24,12.27-3.58,13.29c-.45,1.48-1.11,3.72-2,6.73s-1.51,5.31-2,6.9a1.32,1.32,0,0,0,.09.43,1.59,1.59,0,0,1,.08.43,1.37,1.37,0,0,0,.43-.09,1.09,1.09,0,0,0,.42-.25c1.25-1.59,2.79-3.58,4.6-6,.12-.11.63-.77,1.54-2a27.18,27.18,0,0,1,1.79-2.21c.28-.29.85-.8,1.7-1.54a16.5,16.5,0,0,1,2.3-1.7,9.56,9.56,0,0,1,2.22-.94,4.74,4.74,0,0,1,4.6.85c1.81,1.26,2.84,3.75,3.06,7.5a24,24,0,0,1-1,9.88c-.11.35-.51,2.5-1.19,6.48-.23,1.82-.46,4.71-.68,8.69-.12.23,0,.57.34,1,.11.23.4.12.85-.34a11.25,11.25,0,0,0,2-2.9c1-1.58,2.47-4.06,4.34-7.41s3.32-5.82,4.35-7.41v-.34Q145.2,106.5,148.26,104.62Zm-34.76,8.52V113l-.17.17Zm9-11.08.68-.34-.34-.17-.34.51v.18c-.8-1-1.36-1.08-1.7-.18v-.17a6.4,6.4,0,0,0-2.56,2,15.44,15.44,0,0,0-1.87,3.41,12.48,12.48,0,0,1-1.54,2.89.48.48,0,0,1,.17.34c.46,0,.74,0,.86-.17a27.16,27.16,0,0,0,6.47-8.17h.17Z" transform="translate(0 -37.76)"/><path d="M198.19,41.23a11.85,11.85,0,0,1-.86,5.12,6.61,6.61,0,0,0-1,2.55,13.6,13.6,0,0,1-1.53,5.63q-4.44,10.72-4.26,11.07a11.28,11.28,0,0,1-.85,2.3,16.41,16.41,0,0,0-1,2.73,10.06,10.06,0,0,0-.34,2.64,70.71,70.71,0,0,1-2,9.46c-1.08,4.14-1.67,6.56-1.79,7.24a126.9,126.9,0,0,0-2,13,80.24,80.24,0,0,0-.34,8.86,2.46,2.46,0,0,1-.34,1.36,17.92,17.92,0,0,0-.6,3.92,46,46,0,0,0,.09,4.86c.11,1.87.17,3.15.17,3.83.11,1.93.31,4.86.59,8.77s.48,6.85.6,8.78a15.13,15.13,0,0,0,.43,2.64,8.7,8.7,0,0,1,.25,3,4.86,4.86,0,0,0,.85,2.56,1.58,1.58,0,0,1-.08,1.11,4.94,4.94,0,0,0-.26.93c.57,1,.28,1.71-.85,2a6,6,0,0,1-4.09-1.19,12,12,0,0,1-4.6-8c0-.34-.23-2.25-.68-5.71s-.74-6-.85-7.75q0-.34-1-19.26V109.9c0-.11-.11-.28-.34-.51a.22.22,0,0,0-.34,0l-.17.17-.34.34-3.07,6.31-4.77,8.86a13.86,13.86,0,0,0-1.19,2,11.28,11.28,0,0,1-3.24,3.92,25.52,25.52,0,0,0-3.4,3.07q-2.73,3.06-5.8.68A22.16,22.16,0,0,1,142,122.43a28.72,28.72,0,0,1,0-14.57q2.72-10.23,10.56-21.47a11.75,11.75,0,0,1,1.87-1.79,11.48,11.48,0,0,0,1.88-1.79c0-.11.17-.17.51-.17a52.47,52.47,0,0,1,7-.68,4.66,4.66,0,0,1,3.74,1.87l.52.51q2.21,1.2,2.21,5.29c.11.68.4,2,.85,3.92a.46.46,0,0,1,.34.17c.12.11.23.22.34.34a1,1,0,0,0,.35-.68,10.58,10.58,0,0,0,.42-1.11,8.41,8.41,0,0,1,.43-1.11,49.51,49.51,0,0,0,2.21-7.24c.8-3.24,1.25-5.08,1.37-5.54q.67-2.55,2.13-7.5t2.13-7.49l3.06-8.86c.23-.57.57-1.42,1-2.56s.8-2,1-2.56a28.75,28.75,0,0,1,2.64-4.68A29.92,29.92,0,0,0,191.2,40a4,4,0,0,1,2.9-2.21c1-.23,1.59.11,1.7,1q0,1,1.53,1A1.12,1.12,0,0,1,198.19,41.23Zm-31.7,56.23a84.83,84.83,0,0,0-1.19-9.2,3.21,3.21,0,0,0-5.62-1.87,25.58,25.58,0,0,0-2.9,3.92,11.56,11.56,0,0,0-1.87,3.24,61.4,61.4,0,0,1-1.54,8.69,7.39,7.39,0,0,1-.68,1.87A7.53,7.53,0,0,0,152,106a35.11,35.11,0,0,0-.85,6.48q0,.35.51,10.56c.11.23.42.29.93.17a2.09,2.09,0,0,0,.94-.34,3.49,3.49,0,0,0,.68-.85q4.6-6.47,4.95-7.16c.34-.34.93-1,1.78-1.87a15.29,15.29,0,0,0,2-2.47,12.46,12.46,0,0,0,1.2-2.64,3.73,3.73,0,0,1,.08-.77,3,3,0,0,1,.26-.77,4.77,4.77,0,0,1,.85-1.61,8.76,8.76,0,0,0,1-1.79A15.44,15.44,0,0,0,166.49,97.46Z" transform="translate(0 -37.76)"/><path d="M227.15,97.63a6,6,0,0,1-.76,2.05c-.4.68-.89,1.45-1.45,2.3a21.1,21.1,0,0,0-1.2,2l-2.21,4.6a18.45,18.45,0,0,1-3.24,5.28,10.46,10.46,0,0,0-1.62,3.15,16.67,16.67,0,0,1-1.79,3.67,7,7,0,0,1-.85,1,5.28,5.28,0,0,0-.85,1.11q-.35.6-1,2a11.32,11.32,0,0,1-1.37,2.3,9.42,9.42,0,0,1-3.06,3.24,12,12,0,0,1-3.58,2.22,6.35,6.35,0,0,1-5.79-.35,5.07,5.07,0,0,1-1.45-1.27c-.4-.51-.83-1.11-1.28-1.79s-.85-1.25-1.19-1.71a20.77,20.77,0,0,1-2.9-6.3c-.46-2.27-.34-5.62.34-10.05a49.66,49.66,0,0,1,2.56-9.55c.34-1,.85-2.47,1.53-4.34s1.13-3.15,1.36-3.83a7.16,7.16,0,0,1,2.22-3.58q3.24-2.56,6.3.85a5.29,5.29,0,0,1,1.54,4.94v1.87a7.71,7.71,0,0,0-.43,1.2,5.09,5.09,0,0,0-.26,1.36c-.45,1.14-.79,2.1-1,2.9q-2.55,7.15-2.72,7.66a17.23,17.23,0,0,0-.6,3.16c-.17,1.42-.26,2.36-.26,2.81,0,.23,0,.65-.08,1.28s-.09,1.1-.09,1.44q-.17,1.71-.51,5.63a1.44,1.44,0,0,0,.43.85,1.65,1.65,0,0,1,.42.68c.23-.11.49,0,.77.26a1.17,1.17,0,0,0,.77.42,2.69,2.69,0,0,0,3.07-.85,39.54,39.54,0,0,0,3.4-5.62,24.79,24.79,0,0,1,2.9-4.26q2.38-3.07,2.73-3.58,5.1-8.17,5.79-9.37a9.67,9.67,0,0,0,1.7-3.75,9.89,9.89,0,0,1,2.22-3.24c.22-.22.4-.34.51-.34.34-.11.62.06.85.51A2.44,2.44,0,0,1,227.15,97.63Zm-15.5-21.81a5.92,5.92,0,0,0-1,2.3,3.82,3.82,0,0,1-1.36,2.31A4.73,4.73,0,0,0,207.73,82a2.26,2.26,0,0,1-2.73.51c-.68-.23-1.14-1-1.36-2.22.45-3.63.74-6.19.85-7.66a3,3,0,0,1,1-1.2,2.6,2.6,0,0,1,1.54-.68,4.44,4.44,0,0,1,2.81,1.62,5.62,5.62,0,0,1,1.79,2.81Z" transform="translate(0 -37.76)"/><path d="M269.41,104.62q.51,3.24-1.19,9.37a48,48,0,0,1-3.33,8.27q-2.13,4.17-5.19,9.2t-4.6,7.75q-1.71,2.89-2.9,5.45c-.46.68-.8,1.2-1,1.54-1.71,1.47-3.41,1.42-5.11-.17a25,25,0,0,1-3.07-4.77,2.58,2.58,0,0,1-.17-2.39,27.26,27.26,0,0,0,1.19-5.71q.34-3.15.6-7t.42-5.71c.12-.57.29-1.39.51-2.47a13.31,13.31,0,0,0,.35-2.64l1-10.91q0-1.87-1.71-1c-1.13.91-1.81,1.48-2,1.7l-2.3,4a45.16,45.16,0,0,1-2.64,4.17,26.66,26.66,0,0,0-2.73,4.77c-1,2.16-1.82,3.69-2.38,4.6a23.29,23.29,0,0,1-1.45,2.3,15,15,0,0,0-1.45,2.47q-2.73,4.44-4.94,8.18c-.34.57-.46.91-.34,1a4.34,4.34,0,0,1-.09,1.88,9.44,9.44,0,0,1-.77,2,15.26,15.26,0,0,0-.68,1.54c-.68,2.27-2.21,2.66-4.6,1.19q-2.73-1.71-4.6-6.82a11.43,11.43,0,0,1-.17-2.38c.46-1.93,1.08-4.74,1.88-8.44s1.53-7,2.21-10,1.42-5.82,2.22-8.43q3.06-12.62,4.09-18.92a37.18,37.18,0,0,1,1.53-5,33.81,33.81,0,0,0,1.36-4.35,20.72,20.72,0,0,0,.85-3.07q.35-3.06,3.92-2.38a6.28,6.28,0,0,1,3,1.28,10.75,10.75,0,0,1,2.3,3.4,23.8,23.8,0,0,0,1.36,2.65,3.34,3.34,0,0,1-.17,2.72Q235.33,95.76,235,96.78c-.45,1.48-1.11,3.72-2,6.73s-1.51,5.31-2,6.9a1.32,1.32,0,0,0,.09.43,1.59,1.59,0,0,1,.08.43,1.37,1.37,0,0,0,.43-.09,1.09,1.09,0,0,0,.42-.25c1.25-1.59,2.79-3.58,4.6-6,.12-.11.63-.77,1.54-2a27.18,27.18,0,0,1,1.79-2.21c.28-.29.85-.8,1.7-1.54a16.5,16.5,0,0,1,2.3-1.7,9.56,9.56,0,0,1,2.22-.94,4.74,4.74,0,0,1,4.6.85c1.81,1.26,2.83,3.75,3.06,7.5a24.13,24.13,0,0,1-1,9.88c-.11.35-.51,2.5-1.19,6.48-.23,1.82-.46,4.71-.68,8.69-.12.23,0,.57.34,1,.11.23.39.12.85-.34a10.84,10.84,0,0,0,2-2.9c1-1.58,2.48-4.06,4.35-7.41s3.32-5.82,4.34-7.41v-.34C265.21,108.54,267.36,105.87,269.41,104.62Zm-34.76,8.52V113l-.17.17Zm9-11.08.68-.34-.34-.17-.34.51v.18c-.8-1-1.36-1.08-1.7-.18v-.17a6.4,6.4,0,0,0-2.56,2,15.44,15.44,0,0,0-1.87,3.41,12.48,12.48,0,0,1-1.54,2.89.52.52,0,0,1,.17.34c.46,0,.74,0,.86-.17a27.16,27.16,0,0,0,6.47-8.17h.17Z" transform="translate(0 -37.76)"/><path d="M300.42,97.63a5.86,5.86,0,0,1-.77,2.05c-.4.68-.88,1.45-1.44,2.3a21.1,21.1,0,0,0-1.2,2l-2.21,4.6a18.45,18.45,0,0,1-3.24,5.28,10.23,10.23,0,0,0-1.62,3.15,16.67,16.67,0,0,1-1.79,3.67,7,7,0,0,1-.85,1,5.28,5.28,0,0,0-.85,1.11q-.34.6-1,2a11.32,11.32,0,0,1-1.37,2.3,9.42,9.42,0,0,1-3.06,3.24,12,12,0,0,1-3.58,2.22,6.37,6.37,0,0,1-5.8-.35,5,5,0,0,1-1.44-1.27c-.4-.51-.83-1.11-1.28-1.79s-.85-1.25-1.19-1.71a20.77,20.77,0,0,1-2.9-6.3c-.46-2.27-.34-5.62.34-10.05a49,49,0,0,1,2.56-9.55c.34-1,.85-2.47,1.53-4.34s1.13-3.15,1.36-3.83a7.16,7.16,0,0,1,2.22-3.58c2.15-1.71,4.26-1.42,6.3.85a5.31,5.31,0,0,1,1.54,4.94v1.87a7.71,7.71,0,0,0-.43,1.2A5.09,5.09,0,0,0,280,100c-.45,1.14-.79,2.1-1,2.9q-2.55,7.15-2.72,7.66a17.23,17.23,0,0,0-.6,3.16c-.17,1.42-.26,2.36-.26,2.81,0,.23,0,.65-.08,1.28s-.09,1.1-.09,1.44q-.17,1.71-.51,5.63a1.44,1.44,0,0,0,.43.85,1.65,1.65,0,0,1,.42.68c.23-.11.49,0,.77.26a1.17,1.17,0,0,0,.77.42,2.67,2.67,0,0,0,3.06-.85,38.67,38.67,0,0,0,3.41-5.62,24.79,24.79,0,0,1,2.9-4.26q2.39-3.07,2.73-3.58,5.1-8.17,5.79-9.37a9.67,9.67,0,0,0,1.7-3.75,9.74,9.74,0,0,1,2.22-3.24c.22-.22.39-.34.51-.34.34-.11.62.06.85.51A2.44,2.44,0,0,1,300.42,97.63Zm-15.5-21.81a5.77,5.77,0,0,0-1,2.3,3.82,3.82,0,0,1-1.36,2.31A4.63,4.63,0,0,0,281,82a2.26,2.26,0,0,1-2.73.51c-.68-.23-1.14-1-1.36-2.22.45-3.63.73-6.19.85-7.66a3,3,0,0,1,1-1.2,2.6,2.6,0,0,1,1.53-.68,4.44,4.44,0,0,1,2.82,1.62,5.7,5.7,0,0,1,1.79,2.81Z" transform="translate(0 -37.76)"/><path d="M331.26,143.47c0,1.36-1,2.1-2.89,2.22-1,0-1.65-.74-1.88-2.22v-2.39q0-2.9-2.73-3.06a26.09,26.09,0,0,0-6.3,0,6.31,6.31,0,0,1-1.53.34,5,5,0,0,0-1.79.51,2.77,2.77,0,0,1-2,0c-.68,0-1.74,0-3.15-.09s-2.53-.08-3.33-.08c-.23,0-.91-.06-2-.17a5.71,5.71,0,0,0-2.05,0,4.75,4.75,0,0,0-2.55,1.19,2.5,2.5,0,0,1-3.92.85,6.58,6.58,0,0,1-3.24-3.74,11.56,11.56,0,0,0-1.36-3.07,5.24,5.24,0,0,1,.68-5.11q2-3.41,6.3-10.74.86-1.53,2.73-4.68c1.25-2.11,2.16-3.72,2.73-4.86.45-.68,1.1-1.76,2-3.24l2-3.41a4.27,4.27,0,0,1,.59-1.1l.85-1.2a3.9,3.9,0,0,0,.6-1.1q.35-.69,6.13-11.08a2,2,0,0,1,.18-.6,2,2,0,0,0,.17-.59h-1.37a8,8,0,0,0-2.72,1c-4.43,1.36-7.28,2.27-8.52,2.73a10.48,10.48,0,0,1-2.9.51,3.46,3.46,0,0,1-1.62-.26,12.91,12.91,0,0,1-1.7-1.53l-2.13-2.13a2.52,2.52,0,0,1-.51-.68,2.57,2.57,0,0,1,.42-.34.77.77,0,0,1,.43-.17,55.12,55.12,0,0,0,7-1.2,12.6,12.6,0,0,1,2.47-.76c.86-.17,1.85-.31,3-.43s2-.23,2.55-.34.91-.11,1-.34a18.91,18.91,0,0,1,4-1.45,14.36,14.36,0,0,0,3.83-1.45,5.27,5.27,0,0,1,4.26-.34c2.27.57,3.92,2.28,4.94,5.11a5.92,5.92,0,0,1,0,4.43,9.52,9.52,0,0,0-.42,1.79,5,5,0,0,1-.94,2.3A36.69,36.69,0,0,0,323.85,97a21.63,21.63,0,0,1-2.13,3.58l-.17.34a144.64,144.64,0,0,0-7.67,12.27,5,5,0,0,1-.68.94c-.34.4-.51.65-.51.76q-1.2,1.71-9,14.32a1.68,1.68,0,0,0-.34.68l-.17.51c-.34.91-.06,1.48.85,1.7a24.82,24.82,0,0,1,3.24.17c.9,0,2.58,0,5-.08a41.2,41.2,0,0,1,5,.08q6.48.53,10.22,3.92c.11.12.57.49,1.37,1.11a5.72,5.72,0,0,1,1.53,1.62A9.76,9.76,0,0,1,331.26,143.47ZM298,130.35l-.18-.34a3.3,3.3,0,0,0-1,.17c.45.23.68.4.68.51A2.12,2.12,0,0,0,298,130.35Zm1.36-2.73v0Z" transform="translate(0 -37.76)"/><path d="M366.19,97.63a6,6,0,0,1-.76,2.05c-.4.68-.89,1.45-1.45,2.3a21.1,21.1,0,0,0-1.2,2l-2.21,4.6a18.45,18.45,0,0,1-3.24,5.28,10.46,10.46,0,0,0-1.62,3.15,16.67,16.67,0,0,1-1.79,3.67,6.38,6.38,0,0,1-.85,1,5.28,5.28,0,0,0-.85,1.11q-.35.6-1,2a11.32,11.32,0,0,1-1.37,2.3,9.42,9.42,0,0,1-3.06,3.24,12,12,0,0,1-3.58,2.22,6.36,6.36,0,0,1-5.79-.35A5.07,5.07,0,0,1,336,131c-.4-.51-.83-1.11-1.28-1.79s-.85-1.25-1.19-1.71a20.77,20.77,0,0,1-2.9-6.3c-.46-2.27-.34-5.62.34-10.05a49.66,49.66,0,0,1,2.56-9.55c.34-1,.85-2.47,1.53-4.34s1.14-3.15,1.36-3.83a7.16,7.16,0,0,1,2.22-3.58q3.24-2.56,6.3.85a5.29,5.29,0,0,1,1.54,4.94v1.87a7.71,7.71,0,0,0-.43,1.2,5,5,0,0,0-.25,1.36,30.4,30.4,0,0,0-1,2.9q-2.55,7.15-2.72,7.66a17.23,17.23,0,0,0-.6,3.16c-.17,1.42-.26,2.36-.26,2.81,0,.23,0,.65-.08,1.28s-.09,1.1-.09,1.44q-.17,1.71-.51,5.63a1.44,1.44,0,0,0,.43.85,1.65,1.65,0,0,1,.42.68c.23-.11.49,0,.77.26a1.17,1.17,0,0,0,.77.42,2.69,2.69,0,0,0,3.07-.85,39.54,39.54,0,0,0,3.4-5.62,24.79,24.79,0,0,1,2.9-4.26q2.38-3.07,2.73-3.58,5.1-8.17,5.79-9.37a9.67,9.67,0,0,0,1.7-3.75,9.89,9.89,0,0,1,2.22-3.24c.23-.22.4-.34.51-.34.34-.11.62.06.85.51A2.44,2.44,0,0,1,366.19,97.63Zm-15.5-21.81a6.07,6.07,0,0,0-1,2.3,3.82,3.82,0,0,1-1.36,2.31A4.73,4.73,0,0,0,346.77,82a2.26,2.26,0,0,1-2.73.51c-.68-.23-1.14-1-1.36-2.22.45-3.63.74-6.19.85-7.66a3,3,0,0,1,1-1.2,2.6,2.6,0,0,1,1.54-.68,4.44,4.44,0,0,1,2.81,1.62,5.62,5.62,0,0,1,1.79,2.81Z" transform="translate(0 -37.76)"/><path d="M423.79,97.12a25.44,25.44,0,0,1-.69,4.77c-.23,1-.59,2.56-1.1,4.61s-.83,3.23-.94,3.57a2.1,2.1,0,0,1-.09.51,1.1,1.1,0,0,1-.25.52c-.23.57-.85,3.74-1.88,9.54-.45,5.57-1.13,9.48-2,11.76a7.5,7.5,0,0,0-.17,2v2a5.94,5.94,0,0,1-.17,1.88q-.51,1.53-2.73,13.12-.86,4.61-2.9,16.36l-2,9.88a5.27,5.27,0,0,0-.17,1.53,28.19,28.19,0,0,1-3.07,11.25,11.24,11.24,0,0,0-.68,2.73,9.82,9.82,0,0,1-4.43,5.79,8.15,8.15,0,0,0-1.28,1.11,5.51,5.51,0,0,1-1.1.93c-1.26,1-3.64.8-7.16-.68q-1.87-.51-4.43-4.6-4.26-6.14-3.92-12.1a23.08,23.08,0,0,1,6.13-14q1.36-1.71,4.26-5.2c1.93-2.33,3.47-4.11,4.6-5.36a46.41,46.41,0,0,1,3.75-4.26,9.36,9.36,0,0,0,2.39-6.14q0-.51,1.7-9.54.67-4.1,2.05-12.18c.9-5.4,1.59-9.46,2-12.19.23-1,.51-2.58.85-4.68s.63-3.66.86-4.69v-.68a1,1,0,0,0-.69.17,58.94,58.94,0,0,0-9.71,14.49q-.51,1-4.6,7.32l-.42.85c-.18.34-.32.63-.43.86a2.51,2.51,0,0,1-.85,1.19l-4.09,2.73a1.15,1.15,0,0,0-.51.17c-.46,1.36-1.14,1.81-2.05,1.36a11,11,0,0,1-4.26-4.26l-.34-.34q-2.55-6.3-3.92-10.23A37.81,37.81,0,0,1,382.55,101c.34-.68.79-1.62,1.36-2.81s1-2.07,1.37-2.64a6.83,6.83,0,0,1,3.4-2.9,2.67,2.67,0,0,1,2.73.69,7.8,7.8,0,0,1,2.39,3.23,2.59,2.59,0,0,0,.17.85c.11.35.19.66.25.94a3.8,3.8,0,0,1,.09.77c-.8,4.09-1.37,6.64-1.71,7.67q-.17.68-1.7,4.34a40.13,40.13,0,0,0-2,5.88,17.24,17.24,0,0,0-.17,2.9,14.08,14.08,0,0,0,2.05-1q6-7.32,6.47-8.52,2.22-3.91,11.25-12.43,5.28-5.28,7-9.21c0-.11.11-.28.34-.51a2.81,2.81,0,0,0,.51-.68q1.36-2,3.58,1Q423.61,94.41,423.79,97.12ZM401,163.58a.81.81,0,0,0-.08-.34.75.75,0,0,1-.09-.34c-.23,0-.34,0-.34.17a54.29,54.29,0,0,0-4.09,4.6,32.19,32.19,0,0,1-3.24,3.4q-6,4.6-7,14.15l-.51,3.75a3.37,3.37,0,0,0,.17,1.53,39.62,39.62,0,0,0,2,3.75,1.23,1.23,0,0,0,1.19.68c2.16.23,3.52-.12,4.09-1,1.14-1.71,1.76-2.67,1.88-2.9q3.92-8.52,5.79-25.22A12,12,0,0,0,401,163.58Z" transform="translate(0 -37.76)"/><path d="M468.43,102.92a.7.7,0,0,1-.17.51c-.57,1.48-2.19,3.83-4.86,7.07s-4.12,5-4.34,5.37q-2.06,3.06-12.44,15.5a8.48,8.48,0,0,1-8.18,3.24,13.87,13.87,0,0,1-7-2q-5.79-4.6-6-10.23a35.88,35.88,0,0,1-.34-4.26,56.12,56.12,0,0,1,2.21-13.46q3.24-9.36,3.75-10.22a51,51,0,0,1,9-14.32,6,6,0,0,1,3.75-1.87,22.37,22.37,0,0,0,3.24-.17q3.4-.51,6.13,3.24a22.3,22.3,0,0,1,2.39,3.58,2,2,0,0,1,.34,1.87,57.65,57.65,0,0,1-3.07,9.71,33.06,33.06,0,0,1-6,7.5c-.46.45-1.19,1.14-2.22,2s-1.93,1.74-2.72,2.47a10.87,10.87,0,0,1-2.56,1.79,4.14,4.14,0,0,0-1,1c-.46.57-.74.91-.85,1s-.26.11-.43.34-.31.34-.42.34q-1.71.34-2.22,3.24-.69,7.32.34,10.39c.45,1.36,1.31,1.76,2.56,1.19q1-.51,6.13-2.89v0a165.76,165.76,0,0,0,13.8-13.29,37,37,0,0,1,3.5-3.33,26.73,26.73,0,0,0,3.66-3.66,4.32,4.32,0,0,1,3.07-2.21A1,1,0,0,1,468.43,102.92ZM451.05,85.71a3.33,3.33,0,0,0-.68-2.22c0-.11-.09-.22-.26-.34a1.4,1.4,0,0,1-.42-.42,2.7,2.7,0,0,0-.35-.43c-.79-1.13-1.64-1.25-2.55-.34a3.61,3.61,0,0,0-.68,1.11,3.82,3.82,0,0,1-.68,1.1,8.41,8.41,0,0,0-.43,1.11,8.41,8.41,0,0,1-.43,1.11,37.08,37.08,0,0,0-2.21,5.45A15.6,15.6,0,0,1,439.29,98a28.64,28.64,0,0,0-1.53,3.57c0,1.48.51,1.94,1.53,1.37a25.41,25.41,0,0,0,7.5-7Q448,94.23,451.05,85.71Z" transform="translate(0 -37.76)"/><path d="M515.29,104.62q.51,3.24-1.2,9.37a47.16,47.16,0,0,1-3.32,8.27q-2.13,4.17-5.2,9.2t-4.6,7.75c-1.13,1.93-2.1,3.75-2.89,5.45l-1,1.54c-1.7,1.47-3.4,1.42-5.11-.17a25.09,25.09,0,0,1-3.06-4.77,2.58,2.58,0,0,1-.18-2.39,27.24,27.24,0,0,0,1.2-5.71q.33-3.15.59-7c.17-2.56.32-4.46.43-5.71.11-.57.28-1.39.51-2.47a13.18,13.18,0,0,0,.34-2.64l1-10.91c0-1.25-.57-1.59-1.7-1-1.14.91-1.82,1.48-2,1.7-.46.8-1.23,2.13-2.3,4a44.82,44.82,0,0,1-2.65,4.17,27.37,27.37,0,0,0-2.72,4.77,48.81,48.81,0,0,1-2.39,4.6,23.29,23.29,0,0,1-1.45,2.3,14.08,14.08,0,0,0-1.44,2.47q-2.73,4.44-5,8.18c-.34.57-.45.91-.34,1a4.18,4.18,0,0,1-.08,1.88,10,10,0,0,1-.77,2,13.24,13.24,0,0,0-.68,1.54c-.68,2.27-2.22,2.66-4.6,1.19q-2.73-1.71-4.6-6.82a11.43,11.43,0,0,1-.17-2.38c.45-1.93,1.08-4.74,1.87-8.44s1.54-7,2.22-10,1.42-5.82,2.21-8.43q3.07-12.62,4.09-18.92a39.14,39.14,0,0,1,1.54-5,35.61,35.61,0,0,0,1.36-4.35,22.06,22.06,0,0,0,.85-3.07c.23-2,1.53-2.83,3.92-2.38a6.24,6.24,0,0,1,3,1.28,10.43,10.43,0,0,1,2.3,3.4,24.8,24.8,0,0,0,1.37,2.65,3.31,3.31,0,0,1-.18,2.72c-2.15,8.18-3.35,12.61-3.57,13.29q-.69,2.22-2,6.73c-.85,3-1.51,5.31-2,6.9a1.28,1.28,0,0,0,.08.43,1.32,1.32,0,0,1,.09.43,1.32,1.32,0,0,0,.42-.09,1.14,1.14,0,0,0,.43-.25q1.88-2.39,4.6-6c.11-.11.62-.77,1.53-2s1.51-1.93,1.79-2.21.86-.8,1.71-1.54a16.5,16.5,0,0,1,2.3-1.7,9.67,9.67,0,0,1,2.21-.94,4.73,4.73,0,0,1,4.6.85c1.82,1.26,2.84,3.75,3.07,7.5a24.13,24.13,0,0,1-1,9.88c-.12.35-.51,2.5-1.2,6.48-.22,1.82-.45,4.71-.68,8.69-.11.23,0,.57.34,1,.12.23.4.12.86-.34a10.84,10.84,0,0,0,2-2.9c1-1.58,2.47-4.06,4.35-7.41s3.32-5.82,4.34-7.41v-.34Q512.21,106.5,515.29,104.62Zm-34.76,8.52V113l-.17.17Zm9-11.08.68-.34-.34-.17-.34.51v.18c-.8-1-1.37-1.08-1.71-.18v-.17a6.44,6.44,0,0,0-2.55,2,15.86,15.86,0,0,0-1.88,3.41,12.93,12.93,0,0,1-1.53,2.89.52.52,0,0,1,.17.34c.45,0,.74,0,.85-.17a27,27,0,0,0,6.48-8.17h.17Z" transform="translate(0 -37.76)"/><path d="M546.3,97.63a6.06,6.06,0,0,1-.77,2.05c-.4.68-.88,1.45-1.45,2.3a20.52,20.52,0,0,0-1.19,2l-2.22,4.6a18.39,18.39,0,0,1-3.23,5.28,10,10,0,0,0-1.62,3.15,17.13,17.13,0,0,1-1.79,3.67,7,7,0,0,1-.85,1,5.34,5.34,0,0,0-.86,1.11q-.33.6-1,2a11.33,11.33,0,0,1-1.36,2.3,9.35,9.35,0,0,1-3.07,3.24,11.8,11.8,0,0,1-3.58,2.22,6.36,6.36,0,0,1-5.79-.35,5.21,5.21,0,0,1-1.45-1.27c-.4-.51-.82-1.11-1.28-1.79s-.85-1.25-1.19-1.71a20.74,20.74,0,0,1-2.89-6.3q-.69-3.41.34-10.05a49.59,49.59,0,0,1,2.55-9.55c.34-1,.85-2.47,1.53-4.34s1.14-3.15,1.37-3.83a7.16,7.16,0,0,1,2.21-3.58q3.24-2.56,6.31.85a5.31,5.31,0,0,1,1.53,4.94v1.87a10.66,10.66,0,0,0-.43,1.2,5.42,5.42,0,0,0-.25,1.36,30,30,0,0,0-1,2.9q-2.57,7.15-2.73,7.66a18.14,18.14,0,0,0-.6,3.16c-.17,1.42-.25,2.36-.25,2.81,0,.23,0,.65-.09,1.28s-.08,1.1-.08,1.44q-.18,1.71-.51,5.63a1.48,1.48,0,0,0,.42.85,1.61,1.61,0,0,1,.43.68c.23-.11.48,0,.77.26a1.15,1.15,0,0,0,.76.42,2.68,2.68,0,0,0,3.07-.85,38.67,38.67,0,0,0,3.41-5.62,24.53,24.53,0,0,1,2.89-4.26q2.38-3.07,2.73-3.58,5.12-8.17,5.79-9.37a9.64,9.64,0,0,0,1.71-3.75,9.7,9.7,0,0,1,2.21-3.24c.23-.22.4-.34.51-.34.35-.11.63.06.86.51A2.44,2.44,0,0,1,546.3,97.63ZM530.79,75.82a5.94,5.94,0,0,0-1,2.3,3.87,3.87,0,0,1-1.36,2.31A4.74,4.74,0,0,0,526.87,82a2.25,2.25,0,0,1-2.72.51c-.69-.23-1.14-1-1.37-2.22.46-3.63.74-6.19.85-7.66a3.11,3.11,0,0,1,1-1.2,2.55,2.55,0,0,1,1.53-.68A4.44,4.44,0,0,1,529,72.33a5.55,5.55,0,0,1,1.79,2.81Z" transform="translate(0 -37.76)"/><path d="M591.28,41.23a11.87,11.87,0,0,1-.85,5.12,6.61,6.61,0,0,0-1,2.55,13.48,13.48,0,0,1-1.54,5.63q-4.43,10.72-4.26,11.07a10.71,10.71,0,0,1-.85,2.3,17.24,17.24,0,0,0-1,2.73,10.06,10.06,0,0,0-.34,2.64,70.71,70.71,0,0,1-2,9.46c-1.08,4.14-1.68,6.56-1.79,7.24a131.11,131.11,0,0,0-2,13,83.34,83.34,0,0,0-.34,8.86,2.38,2.38,0,0,1-.34,1.36,17.33,17.33,0,0,0-.59,3.92,48.5,48.5,0,0,0,.08,4.86c.11,1.87.17,3.15.17,3.83.11,1.93.31,4.86.6,8.77s.48,6.85.59,8.78a16.21,16.21,0,0,0,.43,2.64,8.76,8.76,0,0,1,.26,3,4.86,4.86,0,0,0,.85,2.56,1.6,1.6,0,0,1-.09,1.11,4.56,4.56,0,0,0-.25.93c.56,1,.28,1.71-.85,2a6,6,0,0,1-4.09-1.19,12,12,0,0,1-4.6-8c0-.34-.23-2.25-.69-5.71s-.74-6-.85-7.75q0-.34-1-19.26V109.9c0-.11-.11-.28-.34-.51a.22.22,0,0,0-.34,0l-.17.17-.34.34-3.07,6.31-4.77,8.86a13.86,13.86,0,0,0-1.19,2,11.28,11.28,0,0,1-3.24,3.92A25.36,25.36,0,0,0,548,134.1q-2.73,3.06-5.79.68a22.23,22.23,0,0,1-7.16-12.35,28.72,28.72,0,0,1,0-14.57q2.73-10.23,10.57-21.47a11.75,11.75,0,0,1,1.87-1.79,11.32,11.32,0,0,0,1.87-1.79c0-.11.17-.17.52-.17a52.36,52.36,0,0,1,7-.68,4.67,4.67,0,0,1,3.75,1.87l.51.51q2.22,1.2,2.22,5.29c.11.68.39,2,.85,3.92a.48.48,0,0,1,.34.17c.11.11.23.22.34.34a1,1,0,0,0,.34-.68,10.13,10.13,0,0,0,.43-1.11,10.58,10.58,0,0,1,.42-1.11,50.56,50.56,0,0,0,2.22-7.24c.79-3.24,1.25-5.08,1.36-5.54q.68-2.55,2.13-7.5c1-3.29,1.68-5.79,2.13-7.49L577,54.53c.22-.57.56-1.42,1-2.56l1-2.56a30.38,30.38,0,0,1,2.64-4.68A28.34,28.34,0,0,0,584.29,40a4.06,4.06,0,0,1,2.9-2.21q1.53-.34,1.71,1,0,1,1.53,1A1.11,1.11,0,0,1,591.28,41.23ZM559.59,97.46a87.45,87.45,0,0,0-1.19-9.2,3.22,3.22,0,0,0-5.63-1.87,25.39,25.39,0,0,0-2.89,3.92c-1.26,1.82-1.88,2.89-1.88,3.24a60.06,60.06,0,0,1-1.53,8.69,7.8,7.8,0,0,1-.68,1.87,7.59,7.59,0,0,0-.69,1.87,36,36,0,0,0-.85,6.48q0,.35.51,10.56c.12.23.43.29.94.17a2.2,2.2,0,0,0,.94-.34,3.76,3.76,0,0,0,.68-.85q4.6-6.47,4.94-7.16c.34-.34.94-1,1.79-1.87a16.49,16.49,0,0,0,2-2.47,13,13,0,0,0,1.19-2.64,3.8,3.8,0,0,1,.09-.77,3,3,0,0,1,.25-.77,4.82,4.82,0,0,1,.86-1.61,8.76,8.76,0,0,0,1-1.79A15.69,15.69,0,0,0,559.59,97.46Z" transform="translate(0 -37.76)"/><path d="M626.21,102.92a.7.7,0,0,1-.17.51c-.57,1.48-2.19,3.83-4.85,7.07s-4.12,5-4.35,5.37q-2,3.06-12.44,15.5a8.47,8.47,0,0,1-8.18,3.24,13.86,13.86,0,0,1-7-2q-5.81-4.6-6-10.23a35.88,35.88,0,0,1-.34-4.26,56.62,56.62,0,0,1,2.22-13.46c2.15-6.24,3.41-9.65,3.75-10.22a50.75,50.75,0,0,1,9-14.32,5.92,5.92,0,0,1,3.75-1.87,22.31,22.31,0,0,0,3.23-.17q3.4-.51,6.14,3.24a22.7,22.7,0,0,1,2.38,3.58,1.94,1.94,0,0,1,.34,1.87,58.92,58.92,0,0,1-3.06,9.71,33.44,33.44,0,0,1-6,7.5c-.45.45-1.19,1.14-2.21,2s-1.94,1.74-2.73,2.47a10.67,10.67,0,0,1-2.56,1.79,4.52,4.52,0,0,0-1,1c-.45.57-.74.91-.85,1s-.26.11-.43.34-.31.34-.42.34q-1.71.34-2.22,3.24-.67,7.32.34,10.39c.46,1.36,1.31,1.76,2.56,1.19.68-.34,2.73-1.3,6.13-2.89v0a164.28,164.28,0,0,0,13.81-13.29,36.28,36.28,0,0,1,3.49-3.33,25.55,25.55,0,0,0,3.66-3.66,4.32,4.32,0,0,1,3.07-2.21A1,1,0,0,1,626.21,102.92ZM608.83,85.71a3.28,3.28,0,0,0-.68-2.22c0-.11-.09-.22-.25-.34a1.33,1.33,0,0,1-.43-.42,3.4,3.4,0,0,0-.34-.43c-.8-1.13-1.65-1.25-2.56-.34a3.82,3.82,0,0,0-.68,1.11,3.61,3.61,0,0,1-.68,1.1,8.41,8.41,0,0,0-.43,1.11,10.58,10.58,0,0,1-.42,1.11,37.15,37.15,0,0,0-2.22,5.45A15.6,15.6,0,0,1,597.07,98a30.43,30.43,0,0,0-1.53,3.57c0,1.48.51,1.94,1.53,1.37a25.29,25.29,0,0,0,7.5-7Q605.77,94.23,608.83,85.71Z" transform="translate(0 -37.76)"/><path d="M673.07,104.62q.51,3.24-1.19,9.37a48,48,0,0,1-3.33,8.27q-2.13,4.17-5.19,9.2t-4.6,7.75q-1.71,2.89-2.9,5.45c-.46.68-.8,1.2-1,1.54-1.71,1.47-3.41,1.42-5.11-.17a24.57,24.57,0,0,1-3.07-4.77,2.58,2.58,0,0,1-.17-2.39,27.26,27.26,0,0,0,1.19-5.71q.35-3.15.6-7t.42-5.71c.11-.57.28-1.39.51-2.47a13.31,13.31,0,0,0,.35-2.64l1-10.91q0-1.87-1.71-1c-1.13.91-1.81,1.48-2,1.7l-2.3,4a45.16,45.16,0,0,1-2.64,4.17,26.66,26.66,0,0,0-2.73,4.77c-1,2.16-1.82,3.69-2.38,4.6a25.44,25.44,0,0,1-1.45,2.3,14.29,14.29,0,0,0-1.45,2.47q-2.73,4.44-4.94,8.18c-.34.57-.46.91-.34,1a4.34,4.34,0,0,1-.09,1.88,9.44,9.44,0,0,1-.77,2,15.26,15.26,0,0,0-.68,1.54c-.68,2.27-2.21,2.66-4.6,1.19q-2.73-1.71-4.6-6.82a11.43,11.43,0,0,1-.17-2.38c.46-1.93,1.08-4.74,1.88-8.44s1.53-7,2.21-10,1.42-5.82,2.22-8.43q3.06-12.62,4.09-18.92a37.18,37.18,0,0,1,1.53-5A33.81,33.81,0,0,0,631,78.89a20.72,20.72,0,0,0,.85-3.07q.34-3.06,3.92-2.38a6.24,6.24,0,0,1,3,1.28,10.58,10.58,0,0,1,2.31,3.4,23.8,23.8,0,0,0,1.36,2.65,3.34,3.34,0,0,1-.17,2.72Q639,95.76,638.65,96.78q-.69,2.22-2,6.73c-.85,3-1.51,5.31-2,6.9a1.32,1.32,0,0,0,.09.43,1.59,1.59,0,0,1,.08.43,1.37,1.37,0,0,0,.43-.09,1.09,1.09,0,0,0,.42-.25c1.25-1.59,2.79-3.58,4.6-6,.12-.11.63-.77,1.54-2a27.18,27.18,0,0,1,1.79-2.21c.28-.29.85-.8,1.7-1.54a16.5,16.5,0,0,1,2.3-1.7,9.56,9.56,0,0,1,2.22-.94,4.74,4.74,0,0,1,4.6.85c1.81,1.26,2.83,3.75,3.06,7.5a24.13,24.13,0,0,1-1,9.88c-.11.35-.51,2.5-1.19,6.48-.23,1.82-.46,4.71-.68,8.69-.12.23,0,.57.34,1,.11.23.39.12.85-.34a10.84,10.84,0,0,0,2-2.9c1-1.58,2.47-4.06,4.35-7.41s3.32-5.82,4.34-7.41v-.34C668.87,108.54,671,105.87,673.07,104.62Zm-34.76,8.52V113l-.17.17Zm9-11.08.68-.34-.34-.17-.34.51v.18c-.8-1-1.36-1.08-1.7-.18v-.17a6.4,6.4,0,0,0-2.56,2,15.44,15.44,0,0,0-1.87,3.41,12.87,12.87,0,0,1-1.54,2.89.52.52,0,0,1,.17.34c.46,0,.74,0,.85-.17a27,27,0,0,0,6.48-8.17h.17Z" transform="translate(0 -37.76)"/><path d="M738,140.74c0,.12-.12.29-.34.52q-3.93,2.2-6.31.34a39.84,39.84,0,0,1-7.15-6.14,5.82,5.82,0,0,0-1.2-1.19c-.57-.45-1.36-1.08-2.38-1.87l-2.81-2.22a14.94,14.94,0,0,0-2.64-1.7q-3.24-2.22-10.23-6.48a10.37,10.37,0,0,1-1-.6c-.46-.28-.8-.48-1-.59q-1.36-1-1.71,1-.67,3.08-1.7,9.88a19.39,19.39,0,0,0-.34,2c-.12.85-.23,1.62-.34,2.3s-.23,1.37-.34,2.05a30.29,30.29,0,0,0-1,6c0,2.16-.29,3.52-.86,4.09a3,3,0,0,1-3.75-.68,15.14,15.14,0,0,1-3.4-6.13.7.7,0,0,1-.17-.52.73.73,0,0,0-.17-.51c-.69-.56-.91-1.93-.69-4.09s.8-6,1.37-11.75,1.13-10.28,1.7-13.46,1.34-8,2.3-14.32,1.73-11.18,2.3-14.48c.34-2,.85-5.14,1.54-9.29s1.19-7.24,1.53-9.28l3.24-15.17q.17-2,2-2c1.25-.12,2.61.74,4.09,2.55a8.48,8.48,0,0,1,2.22,5.28,21.36,21.36,0,0,1-.34,3.07q-.69,6.31-.69,9.54a13.19,13.19,0,0,1-.42,2.82,12.88,12.88,0,0,0-.43,2.3Q707.14,83.32,707,85.54q-.35,3.4-1.71,9.88a11,11,0,0,0-.34,3.24c-.45,2.84-.74,5-.85,6.47-.34,1.37-.34,2.05,0,2.05.23.23.68-.12,1.36-1s2-2.61,3.58-4.77,2.78-3.75,3.58-4.77a47,47,0,0,1,8-7.84,21.18,21.18,0,0,1,7.84-3.4c1.25,0,2,.4,2.38,1.19a6.47,6.47,0,0,1,0,5.45l-1.45,2.9c-.74,1.48-1.33,2.61-1.78,3.41a24,24,0,0,1-6,6.47,3.48,3.48,0,0,1-1.19.68,7.1,7.1,0,0,0-2.56,1.71,3.77,3.77,0,0,1-1.87,1.36c-1,.46-2.53,1-4.52,1.79s-3.43,1.34-4.34,1.79-1.42.91-1.54,1.36c-.11.68.29,1.31,1.2,1.88q3.74,2.55,8.69,6.47c1.13.8,2.81,2.1,5,3.92s3.67,3,4.35,3.41a23.12,23.12,0,0,1,4.43,4.26,18.52,18.52,0,0,0,4.09,3.41,5.83,5.83,0,0,0,2.89,1.19,1.33,1.33,0,0,1,1.54.34C738.84,139,738.9,139.84,738,140.74Zm-11.08-51.8a2.77,2.77,0,0,0-1.19.18l-1,.51c-.46.23-1.14.54-2.05.93a22.81,22.81,0,0,0-2.38,1.2,7.09,7.09,0,0,0-1.88,1.62L707.49,106l-.17.17c0,.23-.06.35-.17.35l-.17.17V107q0,.67,2-.09a19.31,19.31,0,0,0,2.9-1.28,39.47,39.47,0,0,0,5.45-3.58A49.46,49.46,0,0,0,726.74,91,6.86,6.86,0,0,0,726.91,88.94Z" transform="translate(0 -37.76)"/><path d="M777.35,102.92a.7.7,0,0,1-.17.51c-.57,1.48-2.19,3.83-4.86,7.07s-4.12,5-4.34,5.37q-2.06,3.06-12.44,15.5a8.48,8.48,0,0,1-8.18,3.24,13.87,13.87,0,0,1-7-2q-5.79-4.6-6-10.23a35.88,35.88,0,0,1-.34-4.26,56.62,56.62,0,0,1,2.21-13.46q3.24-9.36,3.75-10.22a51.2,51.2,0,0,1,9-14.32,6,6,0,0,1,3.75-1.87,22.37,22.37,0,0,0,3.24-.17q3.41-.51,6.14,3.24a22.7,22.7,0,0,1,2.38,3.58,2,2,0,0,1,.34,1.87,57.65,57.65,0,0,1-3.07,9.71,33.06,33.06,0,0,1-6,7.5c-.45.45-1.19,1.14-2.22,2s-1.93,1.74-2.72,2.47a10.87,10.87,0,0,1-2.56,1.79,4.14,4.14,0,0,0-1,1c-.46.57-.74.91-.85,1s-.26.11-.43.34-.31.34-.42.34q-1.71.34-2.22,3.24-.68,7.32.34,10.39c.45,1.36,1.31,1.76,2.56,1.19q1-.51,6.13-2.89v0a165.76,165.76,0,0,0,13.8-13.29,37,37,0,0,1,3.5-3.33,26.13,26.13,0,0,0,3.66-3.66,4.32,4.32,0,0,1,3.07-2.21A1,1,0,0,1,777.35,102.92ZM760,85.71a3.33,3.33,0,0,0-.68-2.22c0-.11-.09-.22-.26-.34a1.4,1.4,0,0,1-.42-.42,3.4,3.4,0,0,0-.34-.43c-.8-1.13-1.65-1.25-2.56-.34a3.61,3.61,0,0,0-.68,1.11,3.82,3.82,0,0,1-.68,1.1,8.41,8.41,0,0,0-.43,1.11,8.41,8.41,0,0,1-.43,1.11,37.08,37.08,0,0,0-2.21,5.45A15.6,15.6,0,0,1,748.21,98a28.64,28.64,0,0,0-1.53,3.57c0,1.48.51,1.94,1.53,1.37a25.29,25.29,0,0,0,7.5-7Q756.9,94.23,760,85.71Z" transform="translate(0 -37.76)"/><path d="M797.46,89.12a8.72,8.72,0,0,1-2.05,2.72,2.92,2.92,0,0,1-1.36.85,26.06,26.06,0,0,1-3.07,1.2,2.45,2.45,0,0,1-2-.26c-.8-.4-1.14-.82-1-1.28l.52-.51a15.76,15.76,0,0,0,4.77-4.6c.9-1.25.85-2.73-.17-4.43-.23-.34-.51-.77-.86-1.28l-.68-1a7.87,7.87,0,0,0-.51-.68c-.23-.28-.4-.43-.51-.43H790a1.38,1.38,0,0,0-.85.51c-.34.34-.66.69-.94,1s-.71.79-1.28,1.36a19.09,19.09,0,0,1-1.53,1.87c-1.25,1.26-2.33,3.41-3.24,6.48a7.31,7.31,0,0,0,.85,5.79,3.77,3.77,0,0,1,.68,1.45,3.85,3.85,0,0,0,.52,1.28,5.48,5.48,0,0,0,1.19,1.19q4.42,3.24,8,11.93l3.57,9.54a24.45,24.45,0,0,1-.34,12.78,16,16,0,0,1-4.77,8.35,16.87,16.87,0,0,1-12.43,4.94,5.47,5.47,0,0,1-2-.34,8.51,8.51,0,0,1-1.79-1,7.71,7.71,0,0,0-1.79-1q-6.3-2.73-7-14.66-.18-5.79,3.91-13.29a15.92,15.92,0,0,1,1.79-2.38,6,6,0,0,1,2.13-1.88,3.25,3.25,0,0,0,1.2-.43,10.52,10.52,0,0,1,1.36-.59,1.13,1.13,0,0,1,.85,0,43.25,43.25,0,0,0-2.38,4c-.69,1.31-1.28,2.42-1.79,3.33a7.85,7.85,0,0,0-.94,3.15c-.11,1.19-.23,2.1-.34,2.72a7.32,7.32,0,0,0,.17,2.65c.23,1.13.4,1.93.51,2.38s.37,1.31.77,2.56.65,2,.76,2.38a17.23,17.23,0,0,0,2.9,6.14,5.65,5.65,0,0,0,4.94,1.87,6.33,6.33,0,0,0,2.64-.85,5.2,5.2,0,0,0,1.88-2.56,22.72,22.72,0,0,0,.93-2.55c.12-.46.46-1.59,1-3.41.56-.91.62-2.3.17-4.18a38.9,38.9,0,0,0-1.11-3.91c-.28-.74-.8-1.93-1.53-3.58s-1.23-2.7-1.45-3.16a30.5,30.5,0,0,0-1.62-3.49,29.71,29.71,0,0,1-1.62-3.49,29.44,29.44,0,0,0-2.47-4.52,25.23,25.23,0,0,1-2.47-4.68c-.11-.34-.26-.83-.43-1.45a8.35,8.35,0,0,0-.51-1.45,2,2,0,0,1-.25-.68,69.33,69.33,0,0,1-2.22-7.33q-.35-3.23,2.56-8a21.72,21.72,0,0,1,4.6-5.79c2-2,4.26-2.84,6.64-2.38a12.86,12.86,0,0,0,2.56.17A4.89,4.89,0,0,1,793.54,78q1.88,2.22,3.58,4.6Q798.65,85,797.46,89.12Zm-18.24,69.52a7.74,7.74,0,0,1-.51,2.72q-3.4,8.35-4.17,9.71a6.69,6.69,0,0,1-2.47,2.39c-1.37.91-2.16.57-2.39-1a20.56,20.56,0,0,1-.25-2.81c-.06-1.31-.09-2.36-.09-3.16s.37-2.38.77-5.11.71-4.83.94-6.3c.34-2.62,1.76-3.18,4.26-1.71a14.11,14.11,0,0,0,2,1.2C778.82,155.23,779.45,156.59,779.22,158.64Z" transform="translate(0 -37.76)"/><path d="M842.27,59.13a15.2,15.2,0,0,1-.17,5.11,64.88,64.88,0,0,1-2.9,12.27,5.28,5.28,0,0,0-.34,1.53c.11.8-.28,2-1.19,3.75a55.07,55.07,0,0,0-2.56,5.11c-1,2.27-1.59,3.58-1.7,3.92q-2.22,6.3-6.48,8.52a12.15,12.15,0,0,0-1.53,1.36c-1.82,1.48-2.84,2.33-3.07,2.56a2.33,2.33,0,0,0-1.87,2q-.35,2.06-.68,7a3,3,0,0,1-.17.68,2.64,2.64,0,0,0-.17.85,20.42,20.42,0,0,0-1,8.18,7.81,7.81,0,0,1-.17,1.88,46.14,46.14,0,0,0-1.36,6.39c-.34,2.32-.65,4.91-.94,7.75s-.54,5-.76,6.47c0,.23,0,.63.08,1.2s.09,1,.09,1.19v.85c.11.45.11.68,0,.68a26.29,26.29,0,0,0-.51,6,36.39,36.39,0,0,1-.34,5.79,11.28,11.28,0,0,0,.08,3.07c.17,1.36.26,2.27.26,2.72v6.48a9.9,9.9,0,0,0,.25,1.53,3.67,3.67,0,0,1,.09,1.7,9.83,9.83,0,0,0,.08,3.84,13.28,13.28,0,0,1,.26,3.66c0,.34.11.51.34.51a1.37,1.37,0,0,0,.85-.17,44.2,44.2,0,0,0,3.41-4.77q1.36-2,2-3.24a45.08,45.08,0,0,0,2.9-11.41,169.22,169.22,0,0,0,1.53-22.83,39.9,39.9,0,0,0-.51-8.35,27.78,27.78,0,0,0-1.53-5.46l-3.41-10c.57-.57,1.31-.34,2.22.68a8.34,8.34,0,0,1,.85,2.47,11.18,11.18,0,0,0,.51,2q.16.85,2.9,7.84c.56,2.05,1.07,3.86,1.53,5.45q3.06,16.88-3.41,39.7a23.1,23.1,0,0,1-1.87,5.8,20,20,0,0,1-1.54,2.72,15.19,15.19,0,0,0-1.53,2.9q-2,5.28-7.84,3.92a8.89,8.89,0,0,1-3-1.87,9.7,9.7,0,0,0-2.81-1.88c-.34-.11-.74-.62-1.19-1.53-.12-.57-.32-1.59-.6-3.07s-.48-2.61-.6-3.41q-.51-3.92-1.19-11.75c-.11-1.71-.17-4.43-.17-8.18-.11-1.6-.17-4-.17-7.16a179.09,179.09,0,0,1,1.87-27.77q.52-3.41,1.54-10.4t1.7-10.39q1.53-8.36,3.66-16.79t3.5-12.52q.51-1.37,1.53-4.26a40.39,40.39,0,0,0,1.36-4.43q.18-.68.6-2.13a13.57,13.57,0,0,1,.77-2.13,42.21,42.21,0,0,1,3.75-7.84q.51-1.19,4.43-8.18c.68-1.47,1.59-2,2.72-1.7l1-.68c1-.79,1.76-1.14,2.21-1q3.75.86,4.43,2.38a36.59,36.59,0,0,1,2.39,5.45A72,72,0,0,1,842.27,59.13Zm-4.43.51h-.34c-.46-4.09-.85-6.93-1.19-8.52-.23-.8-.63-1.25-1.2-1.37-.79.23-1.25.57-1.36,1-1.7,3.06-2.33,5.62-1.87,7.66a11.45,11.45,0,0,1-.34,1.37L830,66.11a143.13,143.13,0,0,1-3.75,15.34q-1.18,3.75-2.89,11.24l.34,1.2a3.73,3.73,0,0,1,.51-.43,4.47,4.47,0,0,0,.51-.43q3.4-6,5.11-9a21.46,21.46,0,0,0,2.56-5.11,86.75,86.75,0,0,1,4.6-15q.16-.69.42-2.13C837.58,60.8,837.73,60.09,837.84,59.64Z" transform="translate(0 -37.76)"/><path d="M879.07,102.92a.66.66,0,0,1-.17.51c-.57,1.48-2.18,3.83-4.85,7.07s-4.12,5-4.35,5.37q-2,3.06-12.44,15.5a8.47,8.47,0,0,1-8.17,3.24,13.87,13.87,0,0,1-7-2q-5.79-4.6-6-10.23a36.3,36.3,0,0,1-.35-4.26A56.62,56.62,0,0,1,838,104.62q3.24-9.36,3.75-10.22a50.75,50.75,0,0,1,9-14.32,5.92,5.92,0,0,1,3.75-1.87,22.31,22.31,0,0,0,3.23-.17c2.28-.34,4.32.74,6.14,3.24a22,22,0,0,1,2.38,3.58,2,2,0,0,1,.35,1.87,59.64,59.64,0,0,1-3.07,9.71,33.44,33.44,0,0,1-6,7.5c-.45.45-1.19,1.14-2.21,2s-1.93,1.74-2.73,2.47a10.62,10.62,0,0,1-2.55,1.79,4.14,4.14,0,0,0-1,1c-.46.57-.74.91-.86,1s-.25.11-.42.34-.32.34-.43.34c-1.14.23-1.87,1.31-2.21,3.24q-.69,7.32.34,10.39c.45,1.36,1.3,1.76,2.55,1.19q1-.51,6.14-2.89v0A165.76,165.76,0,0,0,868,111.61a36.28,36.28,0,0,1,3.49-3.33,25.55,25.55,0,0,0,3.66-3.66,4.34,4.34,0,0,1,3.07-2.21A1,1,0,0,1,879.07,102.92ZM861.69,85.71a3.23,3.23,0,0,0-.68-2.22c0-.11-.08-.22-.25-.34a1.44,1.44,0,0,1-.43-.42,2.69,2.69,0,0,0-.34-.43c-.8-1.13-1.65-1.25-2.56-.34a4,4,0,0,0-.68,1.11,3.61,3.61,0,0,1-.68,1.1,10.58,10.58,0,0,0-.42,1.11,10.13,10.13,0,0,1-.43,1.11A37.15,37.15,0,0,0,853,91.84,15.71,15.71,0,0,1,849.94,98a29.64,29.64,0,0,0-1.54,3.57c0,1.48.51,1.94,1.54,1.37a25.39,25.39,0,0,0,7.49-7Q858.63,94.23,861.69,85.71Z" transform="translate(0 -37.76)"/><path d="M928.66,41.23a12,12,0,0,1-.85,5.12,6.8,6.8,0,0,0-1,2.55,13.6,13.6,0,0,1-1.53,5.63Q920.83,65.26,921,65.6a10.71,10.71,0,0,1-.85,2.3,15.48,15.48,0,0,0-1,2.73,10.06,10.06,0,0,0-.34,2.64,70.71,70.71,0,0,1-2,9.46c-1.08,4.14-1.68,6.56-1.79,7.24a128,128,0,0,0-2,13,83.34,83.34,0,0,0-.34,8.86,2.38,2.38,0,0,1-.34,1.36,17.92,17.92,0,0,0-.6,3.92q-.08,2,.09,4.86c.11,1.87.17,3.15.17,3.83.11,1.93.31,4.86.6,8.77s.48,6.85.59,8.78a15.13,15.13,0,0,0,.43,2.64,8.45,8.45,0,0,1,.25,3,4.88,4.88,0,0,0,.86,2.56,1.6,1.6,0,0,1-.09,1.11,4.56,4.56,0,0,0-.25.93c.56,1,.28,1.71-.86,2a6.06,6.06,0,0,1-4.09-1.19,12.08,12.08,0,0,1-4.6-8c0-.34-.23-2.25-.68-5.71s-.74-6-.85-7.75q0-.34-1-19.26V109.9c0-.11-.12-.28-.34-.51a.22.22,0,0,0-.34,0l-.17.17-.34.34L898,116.21l-4.77,8.86a14.69,14.69,0,0,0-1.2,2,11.26,11.26,0,0,1-3.23,3.92,25.36,25.36,0,0,0-3.41,3.07q-2.73,3.06-5.79.68a22.17,22.17,0,0,1-7.16-12.35,28.72,28.72,0,0,1,0-14.57Q875.15,97.63,883,86.39a11.92,11.92,0,0,1,1.88-1.79,11.32,11.32,0,0,0,1.87-1.79c0-.11.17-.17.51-.17a52.62,52.62,0,0,1,7-.68A4.68,4.68,0,0,1,898,83.83l.51.51q2.21,1.2,2.21,5.29c.12.68.4,2,.86,3.92a.48.48,0,0,1,.34.17l.34.34a1,1,0,0,0,.34-.68c.11-.23.25-.6.43-1.11a10.58,10.58,0,0,1,.42-1.11,50.56,50.56,0,0,0,2.22-7.24c.79-3.24,1.24-5.08,1.36-5.54q.68-2.55,2.13-7.5t2.13-7.49l3.07-8.86c.22-.57.56-1.42,1-2.56l1-2.56A28.75,28.75,0,0,1,919,44.73,28.34,28.34,0,0,0,921.67,40a4,4,0,0,1,2.9-2.21c1-.23,1.59.11,1.7,1,0,.68.51,1,1.54,1A1.11,1.11,0,0,1,928.66,41.23ZM897,97.46a88,88,0,0,0-1.2-9.2,3.21,3.21,0,0,0-5.62-1.87,26.28,26.28,0,0,0-2.9,3.92,11.56,11.56,0,0,0-1.87,3.24,60.06,60.06,0,0,1-1.53,8.69,7.86,7.86,0,0,1-.69,1.87,7.53,7.53,0,0,0-.68,1.87,36,36,0,0,0-.85,6.48q0,.35.51,10.56c.11.23.43.29.94.17a2.2,2.2,0,0,0,.94-.34,3.76,3.76,0,0,0,.68-.85q4.59-6.47,4.94-7.16c.34-.34.94-1,1.79-1.87a16.49,16.49,0,0,0,2-2.47,13,13,0,0,0,1.19-2.64,3.8,3.8,0,0,1,.09-.77,3,3,0,0,1,.25-.77,5,5,0,0,1,.85-1.61,8.39,8.39,0,0,0,1-1.79A15.69,15.69,0,0,0,897,97.46Z" transform="translate(0 -37.76)"/><path d="M957.63,97.63a6.06,6.06,0,0,1-.77,2.05c-.4.68-.88,1.45-1.45,2.3a18.59,18.59,0,0,0-1.19,2l-2.22,4.6a18.61,18.61,0,0,1-3.23,5.28,10,10,0,0,0-1.62,3.15,17.62,17.62,0,0,1-1.79,3.67,6.47,6.47,0,0,1-.86,1,5.28,5.28,0,0,0-.85,1.11q-.35.6-1,2a11.33,11.33,0,0,1-1.36,2.3,9.44,9.44,0,0,1-3.07,3.24,11.92,11.92,0,0,1-3.58,2.22,6.36,6.36,0,0,1-5.79-.35,5.21,5.21,0,0,1-1.45-1.27c-.4-.51-.82-1.11-1.28-1.79s-.85-1.25-1.19-1.71a21,21,0,0,1-2.9-6.3q-.68-3.41.34-10.05a50.4,50.4,0,0,1,2.56-9.55c.34-1,.85-2.47,1.53-4.34s1.14-3.15,1.37-3.83A7.09,7.09,0,0,1,930,89.8q3.24-2.56,6.31.85a5.31,5.31,0,0,1,1.53,4.94v1.87a7.71,7.71,0,0,0-.43,1.2,5,5,0,0,0-.25,1.36,27.49,27.49,0,0,0-1,2.9q-2.56,7.15-2.73,7.66a17.23,17.23,0,0,0-.6,3.16c-.17,1.42-.25,2.36-.25,2.81,0,.23,0,.65-.09,1.28s-.08,1.1-.08,1.44q-.18,1.71-.51,5.63a1.48,1.48,0,0,0,.42.85,1.73,1.73,0,0,1,.43.68c.22-.11.48,0,.76.26a1.19,1.19,0,0,0,.77.42,2.69,2.69,0,0,0,3.07-.85,39.57,39.57,0,0,0,3.41-5.62,24.53,24.53,0,0,1,2.89-4.26q2.39-3.07,2.73-3.58,5.11-8.17,5.79-9.37a9.64,9.64,0,0,0,1.71-3.75,9.7,9.7,0,0,1,2.21-3.24c.23-.22.4-.34.51-.34.34-.11.63.06.85.51A2.27,2.27,0,0,1,957.63,97.63ZM942.12,75.82a5.94,5.94,0,0,0-1,2.3,3.82,3.82,0,0,1-1.37,2.31A4.83,4.83,0,0,0,938.2,82a2.26,2.26,0,0,1-2.73.51c-.68-.23-1.13-1-1.36-2.22.45-3.63.74-6.19.85-7.66a3.07,3.07,0,0,1,1-1.2,2.6,2.6,0,0,1,1.54-.68,4.44,4.44,0,0,1,2.81,1.62,5.62,5.62,0,0,1,1.79,2.81Z" transform="translate(0 -37.76)"/><path d="M999.88,104.62q.51,3.24-1.19,9.37a47.94,47.94,0,0,1-3.32,8.27q-2.13,4.17-5.2,9.2t-4.6,7.75c-1.14,1.93-2.1,3.75-2.9,5.45l-1,1.54c-1.7,1.47-3.41,1.42-5.11-.17a25.55,25.55,0,0,1-3.07-4.77,2.61,2.61,0,0,1-.17-2.39,26.63,26.63,0,0,0,1.19-5.71q.35-3.15.6-7t.43-5.71c.11-.57.28-1.39.51-2.47a14,14,0,0,0,.34-2.64l1-10.91c0-1.25-.57-1.59-1.7-1-1.14.91-1.82,1.48-2.05,1.7-.45.8-1.22,2.13-2.3,4a45.16,45.16,0,0,1-2.64,4.17,27.29,27.29,0,0,0-2.73,4.77,49.35,49.35,0,0,1-2.38,4.6,23.29,23.29,0,0,1-1.45,2.3,15,15,0,0,0-1.45,2.47q-2.73,4.44-4.94,8.18c-.34.57-.45.91-.34,1a4.2,4.2,0,0,1-.09,1.88,9.94,9.94,0,0,1-.76,2,13.24,13.24,0,0,0-.68,1.54c-.69,2.27-2.22,2.66-4.6,1.19q-2.73-1.71-4.6-6.82a10.76,10.76,0,0,1-.17-2.38c.45-1.93,1.08-4.74,1.87-8.44s1.53-7,2.21-10,1.42-5.82,2.22-8.43q3.06-12.62,4.09-18.92a40.4,40.4,0,0,1,1.53-5,34.5,34.5,0,0,0,1.37-4.35,23.59,23.59,0,0,0,.85-3.07q.33-3.06,3.92-2.38a6.28,6.28,0,0,1,3,1.28,10.59,10.59,0,0,1,2.3,3.4,26,26,0,0,0,1.36,2.65,3.34,3.34,0,0,1-.17,2.72q-3.24,12.27-3.58,13.29-.68,2.22-2,6.73t-2,6.9a1.32,1.32,0,0,0,.09.43,1.28,1.28,0,0,1,.08.43,1.32,1.32,0,0,0,.43-.09,1.22,1.22,0,0,0,.43-.25c1.24-1.59,2.78-3.58,4.6-6,.11-.11.62-.77,1.53-2s1.51-1.93,1.79-2.21.85-.8,1.7-1.54a17.11,17.11,0,0,1,2.3-1.7,9.75,9.75,0,0,1,2.22-.94,4.74,4.74,0,0,1,4.6.85c1.82,1.26,2.84,3.75,3.07,7.5a24,24,0,0,1-1,9.88c-.11.35-.51,2.5-1.19,6.48-.23,1.82-.45,4.71-.68,8.69-.11.23,0,.57.34,1,.11.23.4.12.85-.34a11.25,11.25,0,0,0,2.05-2.9c1-1.58,2.47-4.06,4.34-7.41s3.33-5.82,4.35-7.41v-.34Q996.82,106.5,999.88,104.62Zm-34.76,8.52V113l-.17.17Zm9-11.08.69-.34-.35-.17-.34.51v.18c-.79-1-1.36-1.08-1.7-.18v-.17a6.47,6.47,0,0,0-2.56,2,15.86,15.86,0,0,0-1.87,3.41,12.93,12.93,0,0,1-1.53,2.89.52.52,0,0,1,.17.34,1.32,1.32,0,0,0,.85-.17,26.85,26.85,0,0,0,6.47-8.17h.17Z" transform="translate(0 -37.76)"/></svg>